#!OML:ASF F:\twosubjects\two\Thursday\Session 1\Rory.ASF
:FULLY-SPECIFIED
:DEGREES
573
root 7.51954 15.4485 10.9102 -147.277 -12.7875 168.163
lowerback 19.0978 1.41305 10.7229
upperback 4.7496 3.07569 7.59128
thorax -5.29054 0.862693 1.47695
lowerneck -7.68098 -11.9415 -7.00913
upperneck -1.18775 -15.9224 16.8699
head 2.88219 -7.57811 5.22317
rclavicle 2.22639e-014 6.36111e-014
rhumerus 47.2545 -24.5318 -105.458
rradius 106.654
rwrist -115.157
rhand -45.5775 8.25995
rfingers 7.12502
rthumb -18.3393 -20.8955
lclavicle 2.22639e-014 6.36111e-014
lhumerus -22.9972 -56.561 116.551
lradius 82.0841
lwrist 5.16317
lhand -36.5628 56.2881
lfingers 7.12502
lthumb -9.65282 -993.953
rfemur -3.07919 17.8178 -19.0211
rtibia 30.7468
rfoot -3.72208 -24.5302
rtoes -30.7079
lfemur -73.6603 18.9393 -30.7568
ltibia 69.6197
lfoot -19.669 -4.33305
ltoes -8.35394
574
root 7.51329 15.4635 10.9168 -146.817 -12.3003 168.44
lowerback 18.745 1.6766 10.5472
upperback 4.65004 3.36882 7.59916
thorax -5.21256 1.01709 1.5201
lowerneck -7.60094 -11.9339 -7.03461
upperneck -1.12578 -15.9312 16.9668
head 2.89991 -7.58068 5.25725
rclavicle 2.54444e-014 5.725e-014
rhumerus 47.2476 -24.4233 -105.37
rradius 106.551
rwrist -115.039
rhand -45.4265 8.74727
rfingers 7.12502
rthumb -18.194 -20.4218
lclavicle 2.54444e-014 5.725e-014
lhumerus -23.0351 -56.7119 116.656
lradius 81.8659
lwrist 4.98609
lhand -36.6694 57.1232
lfingers 7.12502
lthumb -9.75567 -993.123
rfemur -3.94791 17.7032 -19.405
rtibia 30.5028
rfoot -4.07787 -24.5451
rtoes -29.1098
lfemur -74.264 19.2339 -30.9318
ltibia 69.5699
lfoot -19.5447 -4.38515
ltoes -7.56242
575
root 7.5095 15.4695 10.92 -146.64 -12.0707 168.57
lowerback 18.5961 1.79573 10.469
upperback 4.58624 3.50563 7.62716
thorax -5.20505 1.08672 1.56545
lowerneck -7.30812 -11.8849 -7.15953
upperneck -1.23132 -15.868 17.1585
head 2.84204 -7.56448 5.35783
rclavicle 1.90833e-014 3.49861e-014
rhumerus 47.115 -24.4209 -105.211
rradius 106.601
rwrist -115.225
rhand -45.3519 9.21331
rfingers 7.12502
rthumb -18.1223 -19.9625
lclavicle 1.90833e-014 3.49861e-014
lhumerus -22.9798 -56.7643 116.729
lradius 81.7001
lwrist 5.27819
lhand -36.4426 57.4513
lfingers 7.12502
lthumb -9.5369 -992.784
rfemur -4.21772 17.7242 -19.5339
rtibia 30.2345
rfoot -4.96455 -24.8967
rtoes -26.0736
lfemur -74.5221 19.4255 -31.0295
ltibia 69.5841
lfoot -19.5693 -4.4852
ltoes -7.054
576
root 7.50553 15.4641 10.9222 -146.519 -11.8637 168.328
lowerback 18.4666 1.85046 10.2054
upperback 4.62377 3.51415 7.59789
thorax -5.1132 1.10335 1.67749
lowerneck -7.38542 -11.8822 -7.32707
upperneck -1.17774 -15.8595 17.2322
head 2.89005 -7.55221 5.39875
rclavicle -9.54166e-015 3.18055e-014
rhumerus 47.1867 -24.3366 -105.035
rradius 106.627
rwrist -115.518
rhand -45.3043 9.53488
rfingers 7.12502
rthumb -18.0764 -19.6451
lclavicle -9.54166e-015 3.18055e-014
lhumerus -22.6555 -56.7679 116.565
lradius 81.7645
lwrist 5.7699
lhand -36.0743 57.3351
lfingers 7.12502
lthumb -9.18154 -992.885
rfemur -4.15294 17.6861 -19.8984
rtibia 29.9559
rfoot -6.05054 -25.301
rtoes -22.6339
lfemur -74.6154 19.4026 -31.3816
ltibia 69.6679
lfoot -19.7037 -4.59967
ltoes -5.90658
577
root 7.50414 15.4629 10.9248 -146.514 -11.8073 168.229
lowerback 18.3975 1.91811 10.0209
upperback 4.66394 3.54984 7.6818
thorax -5.0502 1.12255 1.86331
lowerneck -7.43444 -11.8896 -7.3763
upperneck -1.02001 -15.8687 17.0709
head 2.93403 -7.54743 5.35074
rclavicle 3.81667e-014 3.81667e-014
rhumerus 47.2734 -24.342 -104.825
rradius 106.661
rwrist -115.853
rhand -45.2369 9.70958
rfingers 7.12502
rthumb -18.0116 -19.4764
lclavicle 3.81667e-014 3.81667e-014
lhumerus -22.4601 -56.7534 116.613
lradius 81.7711
lwrist 5.93533
lhand -35.8152 57.3845
lfingers 7.12502
lthumb -8.9315 -992.825
rfemur -3.92718 17.7977 -19.9167
rtibia 29.617
rfoot -6.44584 -25.8085
rtoes -21.7062
lfemur -74.6205 19.3509 -31.4361
ltibia 69.7677
lfoot -19.7412 -4.7675
ltoes -4.10848
578
root 7.49935 15.469 10.9282 -146.77 -12.1701 168.702
lowerback 18.5199 1.90624 10.6617
upperback 4.74821 3.60636 7.86396
thorax -4.97981 1.12178 1.69863
lowerneck -7.72259 -11.9567 -7.04905
upperneck -0.864602 -15.9721 16.7714
head 2.98396 -7.58218 5.18413
rclavicle 6.67916e-014 1.08139e-013
rhumerus 47.6298 -24.4379 -104.935
rradius 106.758
rwrist -115.811
rhand -45.1792 9.77176
rfingers 7.12502
rthumb -17.9561 -19.4193
lclavicle 6.67916e-014 1.08139e-013
lhumerus -22.1954 -56.9497 116.538
lradius 81.6385
lwrist 5.91322
lhand -35.8544 57.5259
lfingers 7.12502
lthumb -8.96929 -992.685
rfemur -3.60496 17.9937 -19.037
rtibia 29.4068
rfoot -5.87215 -26.4474
rtoes -23.5238
lfemur -74.5474 19.3073 -30.6927
ltibia 69.8648
lfoot -19.6494 -4.81553
ltoes -3.57555
579
root 7.49268 15.4902 10.9136 -147.556 -12.1108 169.204
lowerback 19.2437 1.96672 11.0466
upperback 4.86977 3.79732 7.97253
thorax -5.19613 1.17452 1.55515
lowerneck -7.48386 -11.9601 -6.92597
upperneck -0.882975 -15.9901 16.7113
head 2.92586 -7.60251 5.16148
rclavicle -1.90833e-014 2.8625e-014
rhumerus 47.7867 -24.5933 -104.963
rradius 106.82
rwrist -115.458
rhand -45.0866 9.80708
rfingers 7.12502
rthumb -17.8669 -19.3922
lclavicle -1.90833e-014 2.8625e-014
lhumerus -22.5254 -57.0817 116.813
lradius 81.6987
lwrist 5.84348
lhand -35.8983 58.2161
lfingers 7.12502
lthumb -9.01167 -991.996
rfemur -3.14306 18.5823 -18.2887
rtibia 29.3429
rfoot -4.83566 -26.77
rtoes -26.1069
lfemur -73.7536 19.933 -30.1007
ltibia 69.844
lfoot -19.7054 -4.9044
ltoes -4.00533
580
root 7.48585 15.497 10.9105 -147.725 -11.9506 169.211
lowerback 19.3922 2.02547 10.9562
upperback 4.82118 3.89474 7.95803
thorax -5.33119 1.21836 1.56399
lowerneck -7.01389 -11.9164 -6.99674
upperneck -0.965227 -15.9342 16.7369
head 2.82637 -7.59829 5.21476
rclavicle 3.18055e-015 6.04305e-014
rhumerus 47.6109 -24.8434 -104.813
rradius 106.916
rwrist -115.692
rhand -44.9425 10.0049
rfingers 7.12502
rthumb -17.7283 -19.207
lclavicle 3.18055e-015 6.04305e-014
lhumerus -23.059 -57.0777 117.27
lradius 81.8105
lwrist 5.59419
lhand -35.7383 58.2547
lfingers 7.12502
lthumb -8.85725 -991.951
rfemur -3.13207 18.6777 -18.3033
rtibia 29.4099
rfoot -3.93309 -26.7737
rtoes -28.4209
lfemur -73.4558 20.1575 -30.2498
ltibia 69.686
lfoot -19.7897 -4.65552
ltoes -5.78593
581
root 7.48242 15.4933 10.9214 -147.129 -12.0447 169.055
lowerback 18.8487 2.15008 11.0903
upperback 4.70069 4.05588 7.78518
thorax -5.14508 1.32362 1.27593
lowerneck -7.24532 -12.0677 -6.49196
upperneck -1.03334 -16.1565 16.6351
head 2.81877 -7.70228 5.07853
rclavicle 6.36111e-015 3.49861e-014
rhumerus 47.8501 -25.4812 -105.002
rradius 107.105
rwrist -116.591
rhand -44.7618 10.9065
rfingers 7.12502
rthumb -17.5544 -18.321
lclavicle 6.36111e-015 3.49861e-014
lhumerus -23.1706 -57.6791 117.446
lradius 81.7334
lwrist 5.63671
lhand -35.5882 57.843
lfingers 7.12502
lthumb -8.71243 -992.357
rfemur -3.62003 18.2186 -18.5393
rtibia 29.5158
rfoot -3.58681 -26.888
rtoes -29.3082
lfemur -74.0423 19.7972 -30.6112
ltibia 69.5095
lfoot -19.8518 -4.0422
ltoes -8.88185
582
root 7.48063 15.4978 10.9372 -146.336 -12.2333 168.743
lowerback 18.1664 2.01985 10.8398
upperback 4.46749 3.80966 7.84732
thorax -5.07612 1.22603 1.54537
lowerneck -6.94635 -11.9214 -6.87903
upperneck -1.08616 -15.9441 16.8171
head 2.77904 -7.61104 5.22746
rclavicle -5.08889e-014 -1.78111e-013
rhumerus 47.8137 -25.2047 -105.203
rradius 107.162
rwrist -117.203
rhand -44.528 11.3176
rfingers 7.12502
rthumb -17.3294 -17.9298
lclavicle -5.08889e-014 -1.78111e-013
lhumerus -22.7536 -57.2338 117.334
lradius 81.5425
lwrist 5.92702
lhand -35.6327 58.2937
lfingers 7.12502
lthumb -8.75532 -991.908
rfemur -4.1834 17.5848 -18.9035
rtibia 29.641
rfoot -4.58048 -27.2276
rtoes -26.8164
lfemur -74.8011 19.1333 -31.0058
ltibia 69.3666
lfoot -19.7294 -3.65159
ltoes -9.41103
